<svg width="20" height="21" viewBox="0 0 20 21" fill="none" xmlns="http://www.w3.org/2000/svg">
<path d="M17.6453 8.9498C17.3508 8.64199 17.0461 8.3248 16.9312 8.0459C16.825 7.79043 16.8187 7.36699 16.8125 6.95684C16.8008 6.19434 16.7883 5.33027 16.1875 4.72949C15.5867 4.12871 14.7227 4.11621 13.9602 4.10449C13.55 4.09824 13.1266 4.09199 12.8711 3.98574C12.593 3.8709 12.275 3.56621 11.9672 3.27168C11.4281 2.75371 10.8156 2.16699 10 2.16699C9.18437 2.16699 8.57266 2.75371 8.03281 3.27168C7.725 3.56621 7.40781 3.8709 7.12891 3.98574C6.875 4.09199 6.45 4.09824 6.03984 4.10449C5.27734 4.11621 4.41328 4.12871 3.8125 4.72949C3.21172 5.33027 3.20312 6.19434 3.1875 6.95684C3.18125 7.36699 3.175 7.79043 3.06875 8.0459C2.95391 8.32402 2.64922 8.64199 2.35469 8.9498C1.83672 9.48887 1.25 10.1014 1.25 10.917C1.25 11.7326 1.83672 12.3443 2.35469 12.8842C2.64922 13.192 2.95391 13.5092 3.06875 13.7881C3.175 14.0436 3.18125 14.467 3.1875 14.8771C3.19922 15.6396 3.21172 16.5037 3.8125 17.1045C4.41328 17.7053 5.27734 17.7178 6.03984 17.7295C6.45 17.7357 6.87344 17.742 7.12891 17.8482C7.40703 17.9631 7.725 18.2678 8.03281 18.5623C8.57188 19.0803 9.18437 19.667 10 19.667C10.8156 19.667 11.4273 19.0803 11.9672 18.5623C12.275 18.2678 12.5922 17.9631 12.8711 17.8482C13.1266 17.742 13.55 17.7357 13.9602 17.7295C14.7227 17.7178 15.5867 17.7053 16.1875 17.1045C16.7883 16.5037 16.8008 15.6396 16.8125 14.8771C16.8187 14.467 16.825 14.0436 16.9312 13.7881C17.0461 13.51 17.3508 13.192 17.6453 12.8842C18.1633 12.3451 18.75 11.7326 18.75 10.917C18.75 10.1014 18.1633 9.48965 17.6453 8.9498ZM13.5672 9.48418L9.19219 13.8592C9.13414 13.9173 9.06521 13.9634 8.98934 13.9948C8.91346 14.0263 8.83213 14.0425 8.75 14.0425C8.66787 14.0425 8.58654 14.0263 8.51066 13.9948C8.43479 13.9634 8.36586 13.9173 8.30781 13.8592L6.43281 11.9842C6.31554 11.8669 6.24965 11.7078 6.24965 11.542C6.24965 11.3761 6.31554 11.2171 6.43281 11.0998C6.55009 10.9825 6.70915 10.9166 6.875 10.9166C7.04085 10.9166 7.19991 10.9825 7.31719 11.0998L8.75 12.5334L12.6828 8.5998C12.7409 8.54174 12.8098 8.49567 12.8857 8.46425C12.9616 8.43282 13.0429 8.41664 13.125 8.41664C13.2071 8.41664 13.2884 8.43282 13.3643 8.46425C13.4402 8.49567 13.5091 8.54174 13.5672 8.5998C13.6253 8.65787 13.6713 8.72681 13.7027 8.80268C13.7342 8.87855 13.7503 8.95987 13.7503 9.04199C13.7503 9.12411 13.7342 9.20543 13.7027 9.2813C13.6713 9.35717 13.6253 9.42611 13.5672 9.48418Z" fill="black"/>
</svg>
