<svg width="30" height="30" viewBox="0 0 30 30" fill="none" xmlns="http://www.w3.org/2000/svg">
<path d="M30 15.001C30 23.2852 23.2842 30.001 15 30.001C6.71573 30.001 0 23.2852 0 15.001C0 6.7167 6.71573 0.000976562 15 0.000976562C23.2842 0.000976562 30 6.7167 30 15.001ZM15.5376 11.0747C14.0786 11.6815 11.1627 12.9376 6.7899 14.8427C6.07982 15.125 5.70786 15.4013 5.67399 15.6713C5.61677 16.1279 6.18842 16.3076 6.96687 16.5524C7.07276 16.5857 7.18248 16.6202 7.29495 16.6568C8.06082 16.9057 9.09107 17.197 9.62664 17.2085C10.1125 17.219 10.6547 17.0188 11.2533 16.6076C15.339 13.8497 17.448 12.4558 17.5805 12.4258C17.6739 12.4045 17.8034 12.3779 17.891 12.4558C17.9787 12.5338 17.97 12.6814 17.9609 12.721C17.9042 12.9625 15.6602 15.0487 14.499 16.1282C14.1527 16.4501 13.8152 16.7789 13.475 17.1068C12.7635 17.7926 12.23 18.307 13.5045 19.147C14.7966 19.9985 16.0985 20.8483 17.3586 21.7466C17.9801 22.1897 18.5385 22.5878 19.2282 22.5244C19.6292 22.4875 20.0432 22.1105 20.2533 20.9864C20.7503 18.3299 21.7271 12.5741 21.9528 10.2022C21.9726 9.99443 21.9477 9.72848 21.9278 9.61173C21.9078 9.49499 21.866 9.32864 21.7143 9.2055C21.5345 9.05967 21.2571 9.02892 21.1331 9.03111C20.5688 9.04106 19.7033 9.34203 15.5376 11.0747Z" fill="#4E342E"/>
</svg>
