<svg width="34" height="34" viewBox="0 0 34 34" fill="none" xmlns="http://www.w3.org/2000/svg">
<path d="M33.6668 17.0002C33.6668 26.2048 26.2048 33.6668 17.0002 33.6668C7.79541 33.6668 0.333496 26.2048 0.333496 17.0002C0.333496 7.79541 7.79541 0.333496 17.0002 0.333496C26.2048 0.333496 33.6668 7.79541 33.6668 17.0002ZM17.5975 12.6376C15.9763 13.3119 12.7365 14.7075 7.87783 16.8243C7.08885 17.138 6.67556 17.445 6.63793 17.745C6.57435 18.2523 7.20951 18.452 8.07446 18.724C8.19211 18.761 8.31403 18.7993 8.439 18.84C9.28996 19.1165 10.4347 19.4402 11.0298 19.453C11.5696 19.4647 12.172 19.2422 12.8372 18.7853C17.3768 15.721 19.7202 14.1722 19.8673 14.1388C19.9712 14.1152 20.115 14.0857 20.2123 14.1722C20.3098 14.2588 20.3002 14.4228 20.29 14.4668C20.227 14.7352 17.7337 17.0532 16.4435 18.2527C16.0587 18.6103 15.6837 18.9757 15.3057 19.34C14.5152 20.102 13.9223 20.6735 15.3385 21.6068C16.7742 22.553 18.2207 23.4972 19.6208 24.4953C20.3113 24.9877 20.9318 25.43 21.6982 25.3595C22.1437 25.3185 22.6037 24.8997 22.8372 23.6507C23.3893 20.699 24.4747 14.3037 24.7255 11.6682C24.7475 11.4373 24.7198 11.1418 24.6977 11.0121C24.6755 10.8824 24.629 10.6976 24.4605 10.5607C24.2607 10.3987 23.9525 10.3645 23.8147 10.367C23.1877 10.378 22.226 10.7124 17.5975 12.6376Z" fill="white"/>
</svg>
