<svg width="215" height="213" viewBox="0 0 215 213" fill="none" xmlns="http://www.w3.org/2000/svg" xmlns:xlink="http://www.w3.org/1999/xlink">
<path d="M208 108.417C208 163.646 163.228 208.417 108 208.417C52.7715 208.417 8 163.646 8 108.417C8 53.189 52.7715 8.41748 108 8.41748C163.228 8.41748 208 53.189 208 108.417ZM28 108.417C28 152.6 63.8172 188.417 108 188.417C152.183 188.417 188 152.6 188 108.417C188 64.2347 152.183 28.4175 108 28.4175C63.8172 28.4175 28 64.2347 28 108.417Z" stroke="#FFF9A2" stroke-width="15.3846"/>
<path d="M203.986 80.3674C209.909 100.638 209.263 122.263 202.141 142.143L183.313 135.398C189.011 119.493 189.527 102.193 184.789 85.9772L203.986 80.3674Z" stroke="#FFBB54" stroke-width="15.3846"/>
<use xlink:href="#stroke0_4101_89" transform="translate(213.316 140.758) scale(0.0425011) rotate(135.863)"/>
<use xlink:href="#stroke0_4101_89" transform="translate(211.259 139.45) scale(0.0425011) rotate(109.674)"/>
<use xlink:href="#stroke0_4101_89" transform="translate(208.007 139.83) scale(0.0425011) rotate(90.3603)"/>
<use xlink:href="#stroke0_4101_89" transform="translate(207.602 144.447) scale(0.0425011) rotate(99.5408)"/>
<use xlink:href="#stroke0_4101_89" transform="translate(205.964 147.57) scale(0.0425011) rotate(98.7966)"/>
<use xlink:href="#stroke0_4101_89" transform="translate(205.932 154.73) scale(0.0425011) rotate(122.41)"/>
<use xlink:href="#stroke0_4101_89" transform="translate(201.687 152.823) scale(0.0425011) rotate(91.6166)"/>
<use xlink:href="#stroke0_4101_89" transform="translate(202.141 165.255) scale(0.0425011) rotate(146.311)"/>
<use xlink:href="#stroke0_4101_89" transform="translate(199.426 161.373) scale(0.0425011) rotate(108.072)"/>
<use xlink:href="#stroke0_4101_89" transform="translate(198.019 166.327) scale(0.0425011) rotate(119.888)"/>
<use xlink:href="#stroke0_4101_89" transform="translate(195.994 172.876) scale(0.0425011) rotate(140.274)"/>
<use xlink:href="#stroke0_4101_89" transform="translate(193.485 171.917) scale(0.0425011) rotate(119.978)"/>
<use xlink:href="#stroke0_4101_89" transform="translate(190.453 181.195) scale(0.0425011) rotate(156.777)"/>
<use xlink:href="#stroke0_4101_89" transform="translate(187.638 174.663) scale(0.0425011) rotate(105.511)"/>
<use xlink:href="#stroke0_4101_89" transform="translate(185.034 186.89) scale(0.0425011) rotate(160.654)"/>
<use xlink:href="#stroke0_4101_89" transform="translate(182.966 187.837) scale(0.0425011) rotate(152.121)"/>
<use xlink:href="#stroke0_4101_89" transform="translate(180.661 188.198) scale(0.0425011) rotate(141.317)"/>
<use xlink:href="#stroke0_4101_89" transform="translate(177.56 186.151) scale(0.0425011) rotate(118.085)"/>
<use xlink:href="#stroke0_4101_89" transform="translate(162.036 199.392) scale(0.0425011) rotate(-121.901)"/>
<use xlink:href="#stroke0_4101_89" transform="translate(157.151 195.23) scale(0.0425011) rotate(-105.121)"/>
<use xlink:href="#stroke0_4101_89" transform="translate(154.996 192.233) scale(0.0425011) rotate(-104.553)"/>
<use xlink:href="#stroke0_4101_89" transform="translate(161.472 190.522) scale(0.0425011) rotate(-152.941)"/>
<use xlink:href="#stroke0_4101_89" transform="translate(154.942 187.873) scale(0.0425011) rotate(-128.413)"/>
<use xlink:href="#stroke0_4101_89" transform="translate(154.362 185.048) scale(0.0425011) rotate(-136.53)"/>
<use xlink:href="#stroke0_4101_89" transform="translate(146.019 174.669) scale(0.0425011) rotate(-60.3781)"/>
<use xlink:href="#stroke0_4101_89" transform="translate(149.918 164.796) scale(0.0425011) rotate(-17.3751)"/>
<use xlink:href="#stroke0_4101_89" transform="translate(151.435 165.732) scale(0.0425011) rotate(-36.5275)"/>
<use xlink:href="#stroke0_4101_89" transform="translate(155.313 159.834) scale(0.0425011) rotate(-16.5519)"/>
<use xlink:href="#stroke0_4101_89" transform="translate(156.369 163.062) scale(0.0425011) rotate(-49.6202)"/>
<use xlink:href="#stroke0_4101_89" transform="translate(158.991 162.199) scale(0.0425011) rotate(-59.72)"/>
<use xlink:href="#stroke0_4101_89" transform="translate(161.179 155.025) scale(0.0425011) rotate(-35.7589)"/>
<use xlink:href="#stroke0_4101_89" transform="translate(163.167 152.985) scale(0.0425011) rotate(-40.5018)"/>
<use xlink:href="#stroke0_4101_89" transform="translate(165.144 152.251) scale(0.0425011) rotate(-52.8218)"/>
<use xlink:href="#stroke0_4101_89" transform="translate(169.142 154.534) scale(0.0425011) rotate(-84.6677)"/>
<use xlink:href="#stroke0_4101_89" transform="translate(168.735 143.614) scale(0.0425011) rotate(-39.7516)"/>
<use xlink:href="#stroke0_4101_89" transform="translate(172.694 148.477) scale(0.0425011) rotate(-87.0222)"/>
<use xlink:href="#stroke0_4101_89" transform="translate(172.254 141.933) scale(0.0425011) rotate(-66.5646)"/>
<use xlink:href="#stroke0_4101_89" transform="translate(175.473 141.916) scale(0.0425011) rotate(-87.7507)"/>
<use xlink:href="#stroke0_4101_89" transform="translate(179.226 126.646) scale(0.0425011) rotate(2.39217)"/>
<use xlink:href="#stroke0_4101_89" transform="translate(181.496 128.93) scale(0.0425011) rotate(-6.37743)"/>
<use xlink:href="#stroke0_4101_89" transform="translate(191.56 126.477) scale(0.0425011) rotate(35.7362)"/>
<use xlink:href="#stroke0_4101_89" transform="translate(191.283 128.812) scale(0.0425011) rotate(14.5475)"/>
<use xlink:href="#stroke0_4101_89" transform="translate(192.859 131.219) scale(0.0425011) rotate(2.41536)"/>
<use xlink:href="#stroke0_4101_89" transform="translate(195.92 132.274) scale(0.0425011) rotate(2.25283)"/>
<path d="M97.5544 77.0297H104.488V107.225H97.5544V88.0246L95.5032 90.5682L90.1288 86.1785L97.5544 77.0297ZM123.983 89.0913C125.268 90.0485 126.28 91.2109 127.019 92.5785C127.757 93.9186 128.127 95.3819 128.127 96.9682C128.127 98.3904 127.826 99.7306 127.224 100.989C126.622 102.219 125.788 103.3 124.721 104.23C123.682 105.16 122.465 105.898 121.07 106.445C119.675 106.965 118.185 107.225 116.598 107.225H107.778V76.9887L115.778 77.0297C117.036 77.0297 118.226 77.2485 119.347 77.6861C120.468 78.1238 121.453 78.7255 122.301 79.4913C123.149 80.2297 123.805 81.105 124.27 82.1169C124.762 83.1015 125.009 84.1682 125.009 85.3169C125.009 86.6844 124.667 87.9426 123.983 89.0913ZM114.711 83.9631V86.7118H115.819C116.503 86.6844 117.05 86.5203 117.46 86.2195C117.87 85.9186 118.075 85.6178 118.075 85.3169C118.075 85.0434 117.87 84.7562 117.46 84.4554C117.05 84.1272 116.489 83.9631 115.778 83.9631H114.711ZM116.598 100.25C117.2 100.25 117.774 100.168 118.321 100.004C118.896 99.8126 119.388 99.5665 119.798 99.2656C120.236 98.9648 120.578 98.6229 120.824 98.24C121.07 97.8297 121.193 97.4058 121.193 96.9682C121.193 96.5306 121.07 96.1067 120.824 95.6964C120.578 95.2861 120.236 94.9306 119.798 94.6297C119.388 94.3289 118.896 94.0964 118.321 93.9323C117.774 93.7408 117.2 93.6451 116.598 93.6451H115.86H115.778H114.711V100.25H116.598Z" fill="white"/>
<path d="M67.9079 135.609V128.276H65.4848V126.507H72.2284V128.276H69.7797V135.609H67.9079ZM75.0369 133.122C75.5925 133.686 76.2634 133.968 77.0497 133.968C77.8361 133.968 78.5027 133.686 79.0497 133.122C79.6053 132.55 79.8831 131.862 79.8831 131.058C79.8831 130.255 79.6053 129.571 79.0497 129.007C78.5027 128.434 77.8361 128.148 77.0497 128.148C76.2634 128.148 75.5925 128.434 75.0369 129.007C74.4899 129.571 74.2164 130.255 74.2164 131.058C74.2164 131.862 74.4899 132.55 75.0369 133.122ZM80.3702 134.391C79.4557 135.306 78.3489 135.763 77.0497 135.763C75.7506 135.763 74.6395 135.306 73.7164 134.391C72.8019 133.468 72.3446 132.357 72.3446 131.058C72.3446 129.759 72.8019 128.652 73.7164 127.738C74.6395 126.815 75.7506 126.353 77.0497 126.353C78.3489 126.353 79.4557 126.815 80.3702 127.738C81.2933 128.652 81.7549 129.759 81.7549 131.058C81.7549 132.357 81.2933 133.468 80.3702 134.391ZM84.2846 135.609V128.276H81.8615V126.507H88.6051V128.276H86.1564V135.609H84.2846ZM87.7339 135.609L91.657 126.507H93.3108L97.2467 135.609H95.298L94.4134 133.532H90.5288L89.657 135.609H87.7339ZM92.4775 128.956L91.2211 131.904H93.7211L92.4775 128.956ZM98.0053 135.609V126.507H99.8642V133.84H103.762V135.609H98.0053ZM110.031 135.763C108.997 135.763 108.163 135.468 107.531 134.879C106.898 134.28 106.565 133.584 106.531 132.789H108.39C108.458 133.191 108.642 133.503 108.941 133.725C109.24 133.938 109.604 134.045 110.031 134.045C110.416 134.045 110.727 133.964 110.967 133.802C111.206 133.631 111.326 133.404 111.326 133.122C111.326 132.618 110.92 132.25 110.108 132.02L109.146 131.738C108.403 131.524 107.821 131.191 107.403 130.738C106.984 130.285 106.77 129.72 106.762 129.045C106.762 128.216 107.039 127.562 107.595 127.084C108.151 126.597 108.89 126.353 109.813 126.353C110.745 126.353 111.501 126.635 112.082 127.199C112.663 127.755 112.971 128.396 113.005 129.122H111.159C111.065 128.763 110.894 128.498 110.646 128.327C110.398 128.156 110.121 128.071 109.813 128.071C109.471 128.071 109.189 128.148 108.967 128.302C108.753 128.447 108.642 128.652 108.633 128.917C108.625 129.191 108.715 129.413 108.903 129.584C109.091 129.755 109.381 129.896 109.774 130.007L110.839 130.302C112.411 130.738 113.198 131.656 113.198 133.058C113.198 133.844 112.903 134.494 112.313 135.007C111.732 135.511 110.971 135.763 110.031 135.763ZM118.054 135.763C116.951 135.763 116.058 135.421 115.374 134.738C114.69 134.054 114.349 133.148 114.349 132.02V126.507H116.207V132.045C116.207 132.644 116.374 133.114 116.707 133.456C117.041 133.797 117.49 133.968 118.054 133.968C118.618 133.968 119.066 133.797 119.4 133.456C119.733 133.114 119.9 132.644 119.9 132.045V126.507H121.759V132.02C121.759 133.139 121.413 134.045 120.72 134.738C120.028 135.421 119.139 135.763 118.054 135.763ZM128.73 127.391C129.336 127.973 129.64 128.699 129.64 129.571C129.64 130.443 129.336 131.173 128.73 131.763C128.123 132.344 127.362 132.635 126.448 132.635H125.281V135.609H123.422V126.507H126.448C127.362 126.507 128.123 126.802 128.73 127.391ZM127.448 130.52C127.704 130.272 127.832 129.956 127.832 129.571C127.832 129.186 127.704 128.87 127.448 128.622C127.191 128.374 126.849 128.25 126.422 128.25H125.281V130.891H126.422C126.849 130.891 127.191 130.767 127.448 130.52ZM136.048 127.391C136.655 127.973 136.958 128.699 136.958 129.571C136.958 130.443 136.655 131.173 136.048 131.763C135.441 132.344 134.68 132.635 133.766 132.635H132.599V135.609H130.74V126.507H133.766C134.68 126.507 135.441 126.802 136.048 127.391ZM134.766 130.52C135.022 130.272 135.15 129.956 135.15 129.571C135.15 129.186 135.022 128.87 134.766 128.622C134.509 128.374 134.167 128.25 133.74 128.25H132.599V130.891H133.74C134.167 130.891 134.509 130.767 134.766 130.52ZM138.058 135.609V126.507H139.917V133.84H143.815V135.609H138.058ZM146.061 135.609V131.776L142.702 126.507H144.855L146.984 129.956L149.125 126.507H151.291L147.92 131.789V135.609H146.061Z" fill="white"/>
<defs>
<g id="stroke0_4101_89" data-figma-scatter="f0.25_w0_aj30_sj0_r0_s6951497768916328495_sw15.384614944458008">
<path d="M144.904 352.362C147.954 349.312 149.763 349.672 150.203 353.416C150.707 357.707 148.541 361.981 145.862 361.981C141.689 361.981 141.109 356.157 144.904 352.362ZM233.557 300.848C235.222 299.793 235.148 299.79 239.626 301.034C246.137 302.842 242.834 311.43 236.149 310.074C232.526 309.339 230.657 302.687 233.557 300.848ZM115.043 291.648C115.876 290.814 121.675 290.775 123.794 291.588C127.87 293.152 123.8 300.981 118.911 300.981C115.434 300.981 112.584 294.106 115.043 291.648ZM175 267.844C177.951 264.584 182.797 265.664 183.185 269.669C183.542 273.361 180.116 276.366 176.184 275.808C173.174 275.381 172.468 270.643 175 267.844ZM300.599 259.538C303.26 257.674 305.545 257.551 307.176 259.181C310.959 262.964 304.966 270.3 300.126 267.811C297.566 266.494 297.854 261.461 300.599 259.538ZM65.0379 258.053C67.3289 254.782 73.1336 255.171 74.0077 258.652C74.8097 261.846 70.4911 266.288 67.0751 265.785C64.3022 265.377 63.1012 260.818 65.0379 258.053ZM1.62975 232.231C4.06261 229.617 7.57057 229.306 9.42565 231.541C12.2486 234.942 6.98636 241.476 2.39147 240.275C-0.416467 239.54 -0.856054 234.902 1.62975 232.231ZM227.315 227.042C231.346 223.011 237.247 225.557 235.37 230.516C234.195 233.619 231.794 235.16 228.686 234.803C225.023 234.383 224.265 230.092 227.315 227.042ZM178.376 211.732C181.51 210.534 185.325 212.743 185.361 215.776C185.383 217.706 180.74 221.981 178.621 221.981C173.248 221.981 173.051 213.767 178.376 211.732ZM137.582 210.262C140.566 207.086 142.799 207.702 143.195 211.81C143.572 215.732 141.11 219.981 138.46 219.981C134.822 219.981 134.264 213.794 137.582 210.262ZM104.68 201.937C111.231 197.943 114.57 200.054 112.52 206.893C111.161 211.43 108.789 213.748 104.661 214.574C98.8111 215.744 98.826 205.507 104.68 201.937ZM156.506 182.543C159.544 178.68 163.042 179.112 164.254 183.5C165.996 189.811 163.107 195.981 158.409 195.981C152.055 195.981 151.122 189.388 156.506 182.543ZM332.126 178.425C334.334 175.356 337.748 175.58 338.208 178.826C338.634 181.835 336.64 186.667 334.658 187.427C330.706 188.943 328.979 182.801 332.126 178.425ZM134.324 176.981C140.114 176.981 141.992 179.238 139.609 183.334C135.805 189.874 127.938 186.852 129.768 179.555C130.324 177.339 130.958 176.981 134.324 176.981ZM180.774 170.492C187.383 163.883 194.419 171.193 189.887 179.96C188.034 183.542 185.237 184.501 181.642 182.786C177.638 180.875 177.16 174.106 180.774 170.492ZM112.139 167.546C117.116 164.845 119.376 165.47 119.376 169.547C119.376 175.831 115.282 180.917 110.189 180.959C104.909 181.002 106.413 170.653 112.139 167.546ZM33.1649 171.731C33.7239 169.528 40.0954 169.319 42.9354 171.41C44.8492 172.819 44.8486 172.89 42.9686 176.41C39.2236 183.42 31.175 179.578 33.1649 171.731ZM267.696 168.981C273.426 168.981 275.119 170.774 273.371 174.993C270.77 181.273 264.078 180.001 263.569 173.129C263.261 168.981 263.261 168.981 267.696 168.981ZM159.448 152.616C163.233 147.805 167.376 150.326 167.376 157.442C167.376 162.776 164.86 166.231 160.976 166.231C154.714 166.231 153.968 159.584 159.448 152.616ZM219.499 156.351C222.081 153.602 224.581 153.329 226.805 155.553C229.465 158.213 227.98 162.421 223.824 164.001C218.528 166.014 215.482 160.626 219.499 156.351ZM132.138 146.054C136.16 143.711 141.73 146.765 142.866 151.935C144.745 160.488 132.178 162.971 129.413 154.593C128.136 150.724 129.053 147.852 132.138 146.054ZM184.272 140.085C189.178 135.179 197.376 139.426 197.376 146.875C197.376 151.373 188.322 153.789 185.043 150.165C182.218 147.044 181.87 142.487 184.272 140.085ZM103.265 136.643C106.172 135.867 106.971 135.965 108.832 137.325C112.7 140.153 107.295 147.407 102.187 146.243C98.8774 145.488 99.7655 137.579 103.265 136.643ZM62.4491 135.616C65.764 131.401 68.3758 132.603 68.3758 138.341C68.3755 143.269 62.4813 147.303 60.9833 143.399C59.9033 140.585 60.3321 138.306 62.4491 135.616ZM158.258 128.107C163.297 122.713 167.571 126.799 165.946 135.459C165.2 139.434 163.282 141.231 159.784 141.231C153.605 141.231 152.763 133.99 158.258 128.107ZM121.831 124.436C124.74 121.526 129.132 122.159 129.998 125.613C130.635 128.147 129.291 130.422 126.17 132.092C121.221 134.74 117.713 128.553 121.831 124.436ZM262.467 115.114C264.971 112.426 267.759 112.682 268.182 115.639C268.678 119.104 265.754 124.981 263.534 124.981C259.887 124.981 259.199 118.621 262.467 115.114ZM219.09 113.601C220.466 112.224 227.646 113.439 228.774 115.24C231.457 119.521 223.801 125.239 219.816 121.931C218.332 120.7 217.823 114.868 219.09 113.601ZM186.626 107.037C189.254 106.009 193.302 106.693 195.224 108.488C197.466 110.583 193.061 116.981 189.376 116.981C184.556 116.981 182.277 108.737 186.626 107.037ZM143.089 101.602C145.174 99.5174 152.875 101.476 153.187 104.17C153.806 109.534 145.807 113.524 143.411 109.047C142.221 106.823 142.041 102.651 143.089 101.602ZM311.489 95.5642C314.286 92.0082 316.785 92.5543 317.195 96.8103C317.572 100.732 315.11 104.981 312.46 104.981C308.888 104.981 308.331 99.5791 311.489 95.5642ZM108.031 95.8103C111.186 92.3234 116.376 94.073 116.376 98.6238C116.376 101.384 112.875 103.981 109.153 103.981C105.832 103.981 105.147 98.9973 108.031 95.8103ZM175.774 83.3865C176.469 81.5745 182.402 81.5484 184.862 83.3474C188.912 86.3095 183.355 92.8823 177.705 91.8113C175.831 91.4563 174.652 86.3105 175.774 83.3865ZM38.5047 74.3435C41.9087 70.7215 43.895 71.6512 43.786 76.8172C43.676 81.981 41.2662 85.0278 38.6073 83.3631C35.9104 81.6751 35.8591 77.1605 38.5047 74.3435ZM257.376 69.9812C259.645 67.7122 260.694 67.5464 263.442 69.0164C268.436 71.6895 262.915 80.2395 257.338 78.4695C254.707 77.6344 254.729 72.6282 257.376 69.9812ZM112.217 45.325C116.782 43.296 117.771 44.0962 117.562 49.6482C117.204 59.1642 105.376 64.0357 105.376 54.6668C105.376 49.9811 107.13 47.5859 112.217 45.325ZM215.774 47.3865C216.895 44.4646 226.393 46.547 226.354 49.7058C226.271 56.3407 216.176 58.6121 215.556 52.1365C215.379 50.2967 215.478 48.1587 215.774 47.3865ZM161.376 36.7224C163.823 35.7714 164.281 35.8862 166.376 37.9812C170.527 42.1322 164.797 48.6148 158.958 46.3738C155.842 45.1776 157.591 38.1946 161.376 36.7224ZM128 2.8445C130.951 -0.416408 135.797 0.664004 136.185 4.66872C136.542 8.36057 133.116 11.3661 129.184 10.8084C126.174 10.3814 125.468 5.64253 128 2.8445ZM209.576 1.18141C212.244 -1.48652 219.392 0.727986 219.344 4.20582C219.236 11.9387 208.439 12.6541 208.391 4.93141C208.383 3.52851 208.916 1.84151 209.576 1.18141Z" fill="#7FFE69"/>
</g>
</defs>
</svg>
